<?xml version="1.0" encoding="UTF-8"?>
<svg xmlns="http://www.w3.org/2000/svg" viewBox="0 0 128 128" role="img" aria-label="GasRadar">
  <defs>
    <linearGradient id="bg" x1="0%" y1="0%" x2="100%" y2="100%">
      <stop offset="0%" stop-color="#152a4a"/>
      <stop offset="55%" stop-color="#0b1220"/>
      <stop offset="100%" stop-color="#0d1f1a"/>
    </linearGradient>
    <linearGradient id="pin" x1="30%" y1="10%" x2="70%" y2="90%">
      <stop offset="0%" stop-color="#7dd3fc"/>
      <stop offset="45%" stop-color="#38bdf8"/>
      <stop offset="100%" stop-color="#0ea5e9"/>
    </linearGradient>
    <filter id="soft" x="-20%" y="-20%" width="140%" height="140%">
      <feDropShadow dx="0" dy="2" stdDeviation="2" flood-color="#000" flood-opacity="0.35"/>
    </filter>
  </defs>
  <rect width="128" height="128" rx="28" fill="url(#bg)"/>
  <!-- radar rings -->
  <circle cx="64" cy="62" r="46" fill="none" stroke="#38bdf8" stroke-opacity="0.18" stroke-width="2"/>
  <circle cx="64" cy="62" r="34" fill="none" stroke="#38bdf8" stroke-opacity="0.28" stroke-width="2"/>
  <circle cx="64" cy="62" r="22" fill="none" stroke="#38bdf8" stroke-opacity="0.40" stroke-width="2"/>
  <!-- sweep -->
  <path d="M64 62 L64 20 A42 42 0 0 1 100 48 Z" fill="#22c55e" fill-opacity="0.16"/>
  <!-- pin -->
  <g filter="url(#soft)">
    <path d="M64 28c-15.5 0-28 12.3-28 27.5 0 18.5 28 44.5 28 44.5s28-26 28-44.5C92 40.3 79.5 28 64 28z" fill="url(#pin)"/>
    <ellipse cx="56" cy="48" rx="10" ry="8" fill="#fff" fill-opacity="0.18"/>
    <!-- fuel drop -->
    <path d="M64 44c-6 8-9 12-9 16a9 9 0 0 0 18 0c0-4-3-8-9-16z" fill="#071020"/>
    <text x="64" y="64" text-anchor="middle" font-family="Segoe UI, Arial, sans-serif" font-size="14" font-weight="700" fill="#fff">$</text>
  </g>
</svg>
